<mxfile host="app.diagrams.net" modified="2023-07-11T01:35:11.721Z" agent="Mozilla/5.0 (X11; Linux x86_64) AppleWebKit/537.36 (KHTML, like Gecko) SamsungBrowser/21.0 Chrome/110.0.5481.154 Safari/537.36" version="21.6.1" etag="oHNGlSe7LgNWxNdqrPpC" type="github">
  <diagram name="Page-1" id="DcKQn6wc1BO20vrrRVct">
    <mxGraphModel>
      <root>
        <mxCell id="0" />
        <mxCell id="1" parent="0" />
      </root>
    </mxGraphModel>
  </diagram>
</mxfile>
